<mxfile host="www.draw.io" modified="2019-11-26T08:03:53.214Z" agent="Mozilla/5.0 (Windows NT 10.0; Win64; x64) AppleWebKit/537.36 (KHTML, like Gecko) Chrome/78.0.3904.108 Safari/537.36" etag="s-tz-tfkPlg29vvKQxDt" version="12.3.1" type="github" pages="1">
  <diagram id="orzt3bKYHRkeke6fY_Oe" name="Page-1">
    <mxGraphModel dx="868" dy="450" grid="1" gridSize="10" guides="1" tooltips="1" connect="1" arrows="1" fold="1" page="1" pageScale="1" pageWidth="850" pageHeight="1100" math="0" shadow="0">
      <root>
        <mxCell id="0"/>
        <mxCell id="1" parent="0"/>
        <mxCell id="ec-KHdMDLgc2v5myINzo-3" value="" style="edgeStyle=orthogonalEdgeStyle;rounded=0;orthogonalLoop=1;jettySize=auto;html=1;" edge="1" parent="1" source="ec-KHdMDLgc2v5myINzo-1" target="ec-KHdMDLgc2v5myINzo-2">
          <mxGeometry relative="1" as="geometry"/>
        </mxCell>
        <mxCell id="ec-KHdMDLgc2v5myINzo-9" value="" style="edgeStyle=orthogonalEdgeStyle;rounded=0;orthogonalLoop=1;jettySize=auto;html=1;" edge="1" parent="1" source="ec-KHdMDLgc2v5myINzo-1" target="ec-KHdMDLgc2v5myINzo-8">
          <mxGeometry relative="1" as="geometry"/>
        </mxCell>
        <mxCell id="ec-KHdMDLgc2v5myINzo-1" value="Main dataset&lt;br&gt;(n= )" style="rounded=0;whiteSpace=wrap;html=1;" vertex="1" parent="1">
          <mxGeometry x="90" y="30" width="120" height="60" as="geometry"/>
        </mxCell>
        <mxCell id="ec-KHdMDLgc2v5myINzo-8" value="Exclusion criteria #1&lt;br&gt;(n= )" style="rounded=0;whiteSpace=wrap;html=1;" vertex="1" parent="1">
          <mxGeometry x="290" y="30" width="120" height="60" as="geometry"/>
        </mxCell>
        <mxCell id="ec-KHdMDLgc2v5myINzo-5" value="" style="edgeStyle=orthogonalEdgeStyle;rounded=0;orthogonalLoop=1;jettySize=auto;html=1;" edge="1" parent="1" source="ec-KHdMDLgc2v5myINzo-2" target="ec-KHdMDLgc2v5myINzo-4">
          <mxGeometry relative="1" as="geometry"/>
        </mxCell>
        <mxCell id="ec-KHdMDLgc2v5myINzo-11" value="" style="edgeStyle=orthogonalEdgeStyle;rounded=0;orthogonalLoop=1;jettySize=auto;html=1;" edge="1" parent="1" source="ec-KHdMDLgc2v5myINzo-2" target="ec-KHdMDLgc2v5myINzo-10">
          <mxGeometry relative="1" as="geometry"/>
        </mxCell>
        <mxCell id="ec-KHdMDLgc2v5myINzo-2" value="Subset&lt;br&gt;(n= )" style="rounded=0;whiteSpace=wrap;html=1;" vertex="1" parent="1">
          <mxGeometry x="90" y="170" width="120" height="60" as="geometry"/>
        </mxCell>
        <mxCell id="ec-KHdMDLgc2v5myINzo-10" value="&lt;span style=&quot;white-space: normal&quot;&gt;Exclusion criteria #2&lt;/span&gt;&lt;br style=&quot;white-space: normal&quot;&gt;&lt;span style=&quot;white-space: normal&quot;&gt;(n= )&lt;/span&gt;" style="rounded=0;whiteSpace=wrap;html=1;" vertex="1" parent="1">
          <mxGeometry x="290" y="170" width="120" height="60" as="geometry"/>
        </mxCell>
        <mxCell id="ec-KHdMDLgc2v5myINzo-7" value="" style="edgeStyle=orthogonalEdgeStyle;rounded=0;orthogonalLoop=1;jettySize=auto;html=1;" edge="1" parent="1" source="ec-KHdMDLgc2v5myINzo-4" target="ec-KHdMDLgc2v5myINzo-6">
          <mxGeometry relative="1" as="geometry"/>
        </mxCell>
        <mxCell id="ec-KHdMDLgc2v5myINzo-13" value="" style="edgeStyle=orthogonalEdgeStyle;rounded=0;orthogonalLoop=1;jettySize=auto;html=1;" edge="1" parent="1" source="ec-KHdMDLgc2v5myINzo-4" target="ec-KHdMDLgc2v5myINzo-12">
          <mxGeometry relative="1" as="geometry"/>
        </mxCell>
        <mxCell id="ec-KHdMDLgc2v5myINzo-4" value="&lt;span style=&quot;white-space: normal&quot;&gt;Subset&lt;/span&gt;&lt;br style=&quot;white-space: normal&quot;&gt;&lt;span style=&quot;white-space: normal&quot;&gt;(n= )&lt;/span&gt;" style="rounded=0;whiteSpace=wrap;html=1;" vertex="1" parent="1">
          <mxGeometry x="90" y="310" width="120" height="60" as="geometry"/>
        </mxCell>
        <mxCell id="ec-KHdMDLgc2v5myINzo-12" value="&lt;span style=&quot;white-space: normal&quot;&gt;Exclusion criteria #3&lt;/span&gt;&lt;br style=&quot;white-space: normal&quot;&gt;&lt;span style=&quot;white-space: normal&quot;&gt;(n= )&lt;/span&gt;" style="rounded=0;whiteSpace=wrap;html=1;" vertex="1" parent="1">
          <mxGeometry x="290" y="310" width="120" height="60" as="geometry"/>
        </mxCell>
        <mxCell id="ec-KHdMDLgc2v5myINzo-6" value="&lt;span style=&quot;white-space: normal&quot;&gt;Subset&lt;/span&gt;&lt;br style=&quot;white-space: normal&quot;&gt;&lt;span style=&quot;white-space: normal&quot;&gt;(n= )&lt;/span&gt;" style="rounded=0;whiteSpace=wrap;html=1;" vertex="1" parent="1">
          <mxGeometry x="90" y="450" width="120" height="60" as="geometry"/>
        </mxCell>
      </root>
    </mxGraphModel>
  </diagram>
</mxfile>
